<svg xmlns="http://www.w3.org/2000/svg" version="1.1" xmlns:xlink="http://www.w3.org/1999/xlink" xmlns:svgjs="http://svgjs.dev/svgjs" width="1000" height="1247" viewBox="0 0 1000 1247"><g transform="matrix(1,0,0,1,0.11718960271650758,-1.764372340425325)"><svg viewBox="0 0 113 141" data-background-color="#ffffff" preserveAspectRatio="xMidYMid meet" height="1247" width="1000" xmlns="http://www.w3.org/2000/svg" xmlns:xlink="http://www.w3.org/1999/xlink"><g id="tight-bounds" transform="matrix(1,0,0,1,-0.013242425106966493,0.19949999999997203)"><svg viewBox="0 0 113.02648485021398 140.60052000000002" height="140.60052000000002" width="113.02648485021398"><g><svg viewBox="0 0 113.02648485021398 140.60052000000002" height="140.60052000000002" width="113.02648485021398"><g><svg viewBox="0 0 113.02648485021398 140.60052000000002" height="140.60052000000002" width="113.02648485021398"><g><path d="M0 140.601v-140.601h113.026v140.601z" fill="#087e00" stroke="transparent" stroke-width="0" rx="0%" data-fill-palette-color="tertiary"></path><path d="M3.283 137.317v-134.034h106.46v134.034z" fill="#ffffff" stroke="transparent" stroke-width="0" rx="0%" data-fill-palette-color="quaternary"></path><path d="M9.85 130.751v-120.901h93.327v120.901z" fill="#087e00" stroke="transparent" stroke-width="0" data-fill-palette-color="tertiary"></path></g><g transform="matrix(1,0,0,1,19.69974,19.69974)" id="textblocktransform"><svg viewBox="0 0 73.62700485021398 101.20104000000002" height="101.20104000000002" width="73.62700485021398" id="textblock"><g><svg viewBox="0 0 73.62700485021398 101.20104000000002" height="101.20104000000002" width="73.62700485021398"><g transform="matrix(1,0,0,1,0,0)"><svg width="73.62700485021398" viewBox="0.8999999761581421 -35.04999923706055 25.5 35.04999923706055" height="101.20104000000002" data-palette-color="#ffffff"><g transform="matrix(1,0,0,1,0,0)"><g><svg width="0" viewBox="0 0 0 0" height="6.38" data-palette-color="#ffffff" id="scriptelement" x="26.399999976158142" y="-35.04999923706055"><path d="M0 0" opacity="1" transform="matrix(1,0,0,1,0,0)" fill="#ffffff" class="undefined-123" id="p-123"></path></svg></g></g><path d="M5.85 0L5.85-1.5 24.25-1.5 13.65-30.65 2.5 0 0.9 0 13.65-35.05 26.4 0 5.85 0Z" opacity="1" transform="matrix(1,0,0,1,0,0)" fill="#ffffff" class="undefined-text-0" data-fill-palette-color="quaternary" id="text-0"></path></svg></g></svg></g></svg></g></svg></g><g></g></svg></g><defs></defs></svg><rect width="113.02648485021398" height="140.60052000000002" fill="none" stroke="none" visibility="hidden"></rect></g></svg></g></svg>