{
  "accessors": [
    {
      "bufferView": 2,
      "componentType": 5126,
      "count": 2288,
      "max": [
        9.39968490600586,
        9.562159538269043,
        2.9569387435913086
      ],
      "min": [
        -7.43705940246582,
        -3.659421920776367,
        -7.465121746063232
      ],
      "type": "VEC3"
    },
    {
      "bufferView": 2,
      "byteOffset": 27456,
      "componentType": 5126,
      "count": 2288,
      "max": [
        1.0,
        1.0,
        1.0
      ],
      "min": [
        -1.0,
        -1.0,
        -1.0
      ],
      "type": "VEC3"
    },
    {
      "bufferView": 1,
      "componentType": 5126,
      "count": 2288,
      "max": [
        0.875,
        1.0
      ],
      "min": [
        0.125,
        0.0
      ],
      "type": "VEC2"
    },
    {
      "bufferView": 0,
      "componentType": 5125,
      "count": 5697,
      "type": "SCALAR"
    },
    {
      "bufferView": 2,
      "byteOffset": 54912,
      "componentType": 5126,
      "count": 4,
      "max": [
        3.770017623901367,
        -0.9477434754371643,
        1.5301774740219116
      ],
      "min": [
        -1.8073925971984863,
        -1.7130942344665527,
        1.0
      ],
      "type": "VEC3"
    },
    {
      "bufferView": 2,
      "byteOffset": 54960,
      "componentType": 5126,
      "count": 4,
      "max": [
        0.0,
        -0.5694417953491211,
        -0.8220317363739014
      ],
      "min": [
        0.0,
        -0.5694417953491211,
        -0.8220317363739014
      ],
      "type": "VEC3"
    },
    {
      "bufferView": 1,
      "byteOffset": 18304,
      "componentType": 5126,
      "count": 4,
      "max": [
        0.46588134765625,
        0.9164080619812012
      ],
      "min": [
        0.3762369155883789,
        0.8335919380187988
      ],
      "type": "VEC2"
    },
    {
      "bufferView": 0,
      "byteOffset": 22788,
      "componentType": 5125,
      "count": 6,
      "type": "SCALAR"
    },
    {
      "bufferView": 2,
      "byteOffset": 55008,
      "componentType": 5126,
      "count": 12,
      "max": [
        9.120280265808105,
        9.282754898071289,
        0.6701046824455261
      ],
      "min": [
        -7.157654762268066,
        -0.7205953598022461,
        0.6701046824455261
      ],
      "type": "VEC3"
    },
    {
      "bufferView": 2,
      "byteOffset": 55152,
      "componentType": 5126,
      "count": 12,
      "max": [
        0.0,
        0.0,
        -1.0
      ],
      "min": [
        0.0,
        0.0,
        -1.0
      ],
      "type": "VEC3"
    },
    {
      "bufferView": 1,
      "byteOffset": 18336,
      "componentType": 5126,
      "count": 12,
      "max": [
        0.6183866858482361,
        0.4958513081073761
      ],
      "min": [
        0.3816133141517639,
        0.2541487514972687
      ],
      "type": "VEC2"
    },
    {
      "bufferView": 0,
      "byteOffset": 22812,
      "componentType": 5125,
      "count": 36,
      "type": "SCALAR"
    },
    {
      "bufferView": 2,
      "byteOffset": 55296,
      "componentType": 5126,
      "count": 8,
      "max": [
        9.347428321838379,
        -0.8187941312789917,
        0.9477434754371643
      ],
      "min": [
        -7.38480281829834,
        -1.0,
        0.48917528986930847
      ],
      "type": "VEC3"
    },
    {
      "bufferView": 2,
      "byteOffset": 55392,
      "componentType": 5126,
      "count": 8,
      "max": [
        0.0,
        -0.9300221800804138,
        -0.3675036132335663
      ],
      "min": [
        0.0,
        -0.9300221800804138,
        -0.3675036132335663
      ],
      "type": "VEC3"
    },
    {
      "bufferView": 1,
      "byteOffset": 18432,
      "componentType": 5126,
      "count": 8,
      "max": [
        0.37422409653663635,
        0.7267988920211792
      ],
      "min": [
        0.12577591836452484,
        0.5232011079788208
      ],
      "type": "VEC2"
    },
    {
      "bufferView": 0,
      "byteOffset": 22956,
      "componentType": 5125,
      "count": 18,
      "type": "SCALAR"
    },
    {
      "bufferView": 2,
      "byteOffset": 55488,
      "componentType": 5126,
      "count": 69,
      "max": [
        6.558723449707031,
        9.509902954101563,
        1.5301774740219116
      ],
      "min": [
        -4.596097469329834,
        4.8211870193481445,
        1.0
      ],
      "type": "VEC3"
    },
    {
      "bufferView": 2,
      "byteOffset": 56316,
      "componentType": 5126,
      "count": 69,
      "max": [
        0.0,
        0.11235927790403366,
        0.993667721748352
      ],
      "min": [
        0.0,
        0.11235905438661575,
        0.9936676621437073
      ],
      "type": "VEC3"
    },
    {
      "bufferView": 1,
      "byteOffset": 18496,
      "componentType": 5126,
      "count": 69,
      "max": [
        0.6237632036209106,
        0.9578161239624023
      ],
      "min": [
        0.5341187715530396,
        0.7921839952468872
      ],
      "type": "VEC2"
    },
    {
      "bufferView": 0,
      "byteOffset": 23028,
      "componentType": 5125,
      "count": 96,
      "type": "SCALAR"
    }
  ],
  "asset": {
    "extras": {
      "author": "lzy.nrd (https://sketchfab.com/lzy.nrd)",
      "license": "CC-BY-4.0 (http://creativecommons.org/licenses/by/4.0/)",
      "source": "https://sketchfab.com/3d-models/computer-model-735274bc081a40e4bcee8db2d108445f",
      "title": "Computer model"
    },
    "generator": "Sketchfab-12.68.0",
    "version": "2.0"
  },
  "bufferViews": [
    {
      "buffer": 0,
      "byteLength": 23412,
      "name": "floatBufferViews",
      "target": 34963
    },
    {
      "buffer": 0,
      "byteLength": 19048,
      "byteOffset": 23412,
      "byteStride": 8,
      "name": "floatBufferViews",
      "target": 34962
    },
    {
      "buffer": 0,
      "byteLength": 57144,
      "byteOffset": 42460,
      "byteStride": 12,
      "name": "floatBufferViews",
      "target": 34962
    }
  ],
  "buffers": [
    {
      "byteLength": 99604,
      "uri": "scene.bin"
    }
  ],
  "materials": [
    {
      "doubleSided": true,
      "name": "Material",
      "pbrMetallicRoughness": {
        "baseColorFactor": [
          0.0,
          0.0,
          0.0,
          1.0
        ],
        "metallicFactor": 0.0
      }
    },
    {
      "doubleSided": true,
      "emissiveFactor": [
        0.0869547,
        1.0,
        0.0
      ],
      "name": "Material.001",
      "pbrMetallicRoughness": {
        "baseColorFactor": [
          0.0,
          0.8,
          0.0117014,
          1.0
        ],
        "metallicFactor": 0.0,
        "roughnessFactor": 0.5
      }
    },
    {
      "doubleSided": true,
      "name": "Material.002",
      "pbrMetallicRoughness": {
        "baseColorFactor": [
          0.0256847,
          0.0256847,
          0.0256847,
          1.0
        ],
        "metallicFactor": 0.0,
        "roughnessFactor": 0.714286
      }
    },
    {
      "doubleSided": true,
      "emissiveFactor": [
        0.002227,
        0.00897312,
        0.0
      ],
      "name": "Material.003",
      "pbrMetallicRoughness": {
        "baseColorFactor": [
          0.00805479,
          0.133681,
          0.0,
          1.0
        ],
        "metallicFactor": 0.0,
        "roughnessFactor": 0.5
      }
    },
    {
      "doubleSided": true,
      "emissiveFactor": [
        0.0,
        0.607207,
        0.627739
      ],
      "name": "Material.004",
      "pbrMetallicRoughness": {
        "baseColorFactor": [
          0.0,
          0.727988,
          0.8,
          1.0
        ],
        "metallicFactor": 0.0,
        "roughnessFactor": 0.5
      }
    }
  ],
  "meshes": [
    {
      "name": "Object_0",
      "primitives": [
        {
          "attributes": {
            "NORMAL": 1,
            "POSITION": 0,
            "TEXCOORD_0": 2
          },
          "indices": 3,
          "material": 0,
          "mode": 4
        }
      ]
    },
    {
      "name": "Object_1",
      "primitives": [
        {
          "attributes": {
            "NORMAL": 5,
            "POSITION": 4,
            "TEXCOORD_0": 6
          },
          "indices": 7,
          "material": 1,
          "mode": 4
        }
      ]
    },
    {
      "name": "Object_2",
      "primitives": [
        {
          "attributes": {
            "NORMAL": 9,
            "POSITION": 8,
            "TEXCOORD_0": 10
          },
          "indices": 11,
          "material": 2,
          "mode": 4
        }
      ]
    },
    {
      "name": "Object_3",
      "primitives": [
        {
          "attributes": {
            "NORMAL": 13,
            "POSITION": 12,
            "TEXCOORD_0": 14
          },
          "indices": 15,
          "material": 3,
          "mode": 4
        }
      ]
    },
    {
      "name": "Object_4",
      "primitives": [
        {
          "attributes": {
            "NORMAL": 17,
            "POSITION": 16,
            "TEXCOORD_0": 18
          },
          "indices": 19,
          "material": 4,
          "mode": 4
        }
      ]
    }
  ],
  "nodes": [
    {
      "children": [
        1
      ],
      "matrix": [
        1.0,
        0.0,
        0.0,
        0.0,
        0.0,
        2.220446049250313e-16,
        -1.0,
        0.0,
        0.0,
        1.0,
        2.220446049250313e-16,
        0.0,
        0.0,
        0.0,
        0.0,
        1.0
      ],
      "name": "Sketchfab_model"
    },
    {
      "children": [
        2
      ],
      "name": "root"
    },
    {
      "children": [
        3
      ],
      "matrix": [
        1.0,
        0.0,
        0.0,
        0.0,
        0.0,
        2.220446049250313e-16,
        1.0,
        0.0,
        0.0,
        -1.0,
        2.220446049250313e-16,
        0.0,
        0.0,
        0.0,
        0.0,
        1.0
      ],
      "name": "GLTF_SceneRootNode"
    },
    {
      "children": [
        4,
        5,
        6,
        7,
        8
      ],
      "name": "Cube_0"
    },
    {
      "mesh": 0,
      "name": "Object_4"
    },
    {
      "mesh": 1,
      "name": "Object_5"
    },
    {
      "mesh": 2,
      "name": "Object_6"
    },
    {
      "mesh": 3,
      "name": "Object_7"
    },
    {
      "mesh": 4,
      "name": "Object_8"
    }
  ],
  "scene": 0,
  "scenes": [
    {
      "name": "Sketchfab_Scene",
      "nodes": [
        0
      ]
    }
  ]
}
